# xmcd
#
# Track frame offsets:
#	150
#	17430
#	39187
#	55110
#	72047
#	87120
#	93335
#	111770
#	134170
#	160985
#	181347
#	194120
#	211237
#	233027
#
# Disc length: 3376 seconds
#
# Revision: 5
# Processed by: cddbd v1.5.2PL0 Copyright (c) Steve Scherf et al.
# Submitted via: audiograbber 1.83.01
#
DISCID=b70d2e0e
DTITLE=Stone, Angie - The art of love and war
DYEAR=2007
DGENRE=Soul
TTITLE0=Take everything in
TTITLE1=Baby (feat. Betty Wright)
TTITLE2=Here we go again
TTITLE3=Make it last
TTITLE4=Sometimes
TTITLE5=Go back to your life
TTITLE6=Half a chance (feat. Chino)
TTITLE7=These are the reasons
TTITLE8=My people (feat. James Ingram)
TTITLE9=Sit down
TTITLE10=Play wit it
TTITLE11=Pop pop
TTITLE12=Wait for me
TTITLE13=Happy being me (feat. Pauletta Washington)
EXTD=
EXTT0=
EXTT1=
EXTT2=
EXTT3=
EXTT4=
EXTT5=
EXTT6=
EXTT7=
EXTT8=
EXTT9=
EXTT10=
EXTT11=
EXTT12=
EXTT13=
PLAYORDER=
